<svg width="468" height="39" viewBox="0 0 468 39" fill="none" xmlns="http://www.w3.org/2000/svg">
<path d="M459.896 21V9.20801H466.856V10.776H461.752V14.056H466.072V15.624H461.752V19.416H467.032V21H459.896Z" fill="black"/>
<path d="M452.498 21V10.776H449.058V9.20801H457.842V10.776H454.386V21H452.498Z" fill="black"/>
<path d="M445.177 21V9.20801H447.033V21H445.177Z" fill="black"/>
<path d="M438.803 21.224C437.992 21.224 437.224 21.0693 436.499 20.76C435.784 20.4507 435.155 20.024 434.611 19.48L435.699 18.2C436.125 18.616 436.611 18.952 437.155 19.208C437.709 19.464 438.275 19.592 438.851 19.592C439.555 19.592 440.093 19.4373 440.467 19.128C440.851 18.8187 441.043 18.4187 441.043 17.928C441.043 17.5653 440.963 17.2773 440.803 17.064C440.643 16.84 440.419 16.6533 440.131 16.504C439.853 16.3547 439.533 16.2 439.171 16.04L437.539 15.336C437.155 15.176 436.776 14.968 436.403 14.712C436.04 14.4453 435.736 14.1147 435.491 13.72C435.256 13.3147 435.139 12.824 435.139 12.248C435.139 11.6293 435.304 11.0747 435.635 10.584C435.965 10.0933 436.424 9.70933 437.011 9.432C437.597 9.144 438.264 9 439.011 9C439.704 9 440.36 9.13333 440.979 9.4C441.597 9.66667 442.125 10.0293 442.563 10.488L441.619 11.672C441.245 11.3413 440.845 11.0853 440.419 10.904C440.003 10.712 439.533 10.616 439.011 10.616C438.403 10.616 437.923 10.7547 437.571 11.032C437.219 11.2987 437.043 11.6613 437.043 12.12C437.043 12.4613 437.133 12.744 437.315 12.968C437.496 13.1813 437.731 13.3627 438.019 13.512C438.317 13.6507 438.621 13.784 438.931 13.912L440.547 14.6C441.016 14.792 441.432 15.0267 441.795 15.304C442.157 15.5813 442.44 15.9173 442.643 16.312C442.845 16.7067 442.947 17.1973 442.947 17.784C442.947 18.4133 442.781 18.9893 442.451 19.512C442.12 20.024 441.645 20.44 441.027 20.76C440.408 21.0693 439.667 21.224 438.803 21.224Z" fill="black"/>
<path d="M425.446 21.224C424.401 21.224 423.462 20.984 422.63 20.504C421.809 20.024 421.158 19.3307 420.678 18.424C420.209 17.5173 419.974 16.4187 419.974 15.128C419.974 14.168 420.113 13.3093 420.39 12.552C420.678 11.7947 421.067 11.1547 421.558 10.632C422.059 10.0987 422.641 9.69333 423.302 9.416C423.974 9.13867 424.705 9 425.494 9C426.326 9 427.025 9.15467 427.59 9.464C428.166 9.77333 428.63 10.1147 428.982 10.488L427.99 11.672C427.691 11.384 427.35 11.1387 426.966 10.936C426.582 10.7227 426.107 10.616 425.542 10.616C424.817 10.616 424.177 10.7973 423.622 11.16C423.078 11.5227 422.651 12.0347 422.342 12.696C422.043 13.3573 421.894 14.152 421.894 15.08C421.894 16.008 422.038 16.8133 422.326 17.496C422.614 18.168 423.035 18.6853 423.59 19.048C424.145 19.4107 424.827 19.592 425.638 19.592C426.001 19.592 426.342 19.544 426.662 19.448C426.993 19.3413 427.259 19.1973 427.462 19.016V16.264H425.142V14.728H429.158V19.832C428.763 20.2267 428.246 20.5573 427.606 20.824C426.966 21.0907 426.246 21.224 425.446 21.224Z" fill="black"/>
<path d="M408.88 21V9.20801H410.784L414.688 16.136L415.92 18.616H416C415.947 18.0187 415.888 17.3787 415.824 16.696C415.771 16.0133 415.744 15.352 415.744 14.712V9.20801H417.52V21H415.616L411.712 14.056L410.48 11.592H410.416C410.459 12.2 410.507 12.8347 410.56 13.496C410.613 14.1573 410.64 14.8133 410.64 15.464V21H408.88Z" fill="black"/>
<path d="M403.943 21V9.20801H405.799V21H403.943Z" fill="black"/>
<path d="M396.545 21V10.776H393.105V9.20801H401.889V10.776H398.433V21H396.545Z" fill="black"/>
<path d="M389.224 21V9.20801H391.08V21H389.224Z" fill="black"/>
<path d="M381.81 21.224C381.159 21.224 380.562 21.128 380.018 20.936C379.484 20.744 379.026 20.44 378.642 20.024C378.258 19.608 377.959 19.064 377.746 18.392C377.532 17.72 377.426 16.904 377.426 15.944V9.20801H379.282V16.056C379.282 16.9413 379.388 17.6453 379.602 18.168C379.826 18.68 380.124 19.048 380.498 19.272C380.882 19.4853 381.319 19.592 381.81 19.592C382.311 19.592 382.754 19.4853 383.138 19.272C383.522 19.048 383.826 18.68 384.05 18.168C384.274 17.6453 384.386 16.9413 384.386 16.056V9.20801H386.178V15.944C386.178 16.904 386.071 17.72 385.858 18.392C385.655 19.064 385.362 19.608 384.978 20.024C384.594 20.44 384.13 20.744 383.586 20.936C383.052 21.128 382.46 21.224 381.81 21.224Z" fill="black"/>
<path d="M366.99 21V9.20801H370.846C371.656 9.20801 372.382 9.32001 373.022 9.54401C373.662 9.75734 374.168 10.1147 374.542 10.616C374.915 11.1067 375.102 11.7787 375.102 12.632C375.102 13.4533 374.915 14.1307 374.542 14.664C374.168 15.1973 373.662 15.5973 373.022 15.864C372.382 16.12 371.656 16.248 370.846 16.248H368.846V21H366.99ZM368.846 14.76H370.622C371.475 14.76 372.126 14.584 372.574 14.232C373.032 13.8693 373.262 13.336 373.262 12.632C373.262 11.9173 373.032 11.4213 372.574 11.144C372.126 10.856 371.475 10.712 370.622 10.712H368.846V14.76ZM373.422 21L370.494 15.752L371.87 14.68L375.518 21H373.422Z" fill="black"/>
<path d="M361.238 21.224C360.502 21.224 359.814 21.0907 359.174 20.824C358.544 20.5467 357.99 20.1467 357.51 19.624C357.03 19.1013 356.656 18.4667 356.39 17.72C356.123 16.9627 355.99 16.0987 355.99 15.128C355.99 14.168 356.128 13.3093 356.406 12.552C356.683 11.7947 357.062 11.1547 357.542 10.632C358.022 10.0987 358.587 9.69333 359.238 9.416C359.888 9.13867 360.587 9 361.334 9C362.059 9 362.704 9.14933 363.27 9.448C363.835 9.74667 364.299 10.0933 364.662 10.488L363.67 11.672C363.36 11.3627 363.014 11.112 362.63 10.92C362.256 10.7173 361.835 10.616 361.366 10.616C360.683 10.616 360.08 10.7973 359.558 11.16C359.046 11.5227 358.64 12.0347 358.342 12.696C358.054 13.3573 357.91 14.152 357.91 15.08C357.91 16.008 358.048 16.8133 358.326 17.496C358.603 18.168 358.998 18.6853 359.51 19.048C360.022 19.4107 360.624 19.592 361.318 19.592C361.851 19.592 362.326 19.48 362.742 19.256C363.168 19.0213 363.558 18.712 363.91 18.328L364.918 19.512C364.438 20.0667 363.894 20.4933 363.286 20.792C362.688 21.08 362.006 21.224 361.238 21.224Z" fill="black"/>
<path d="M347.052 21V9.20801H354.012V10.776H348.908V14.056H353.228V15.624H348.908V19.416H354.188V21H347.052Z" fill="black"/>
<path d="M336.552 21V9.20801H340.408C341.219 9.20801 341.944 9.32001 342.584 9.54401C343.224 9.75734 343.731 10.1147 344.104 10.616C344.477 11.1067 344.664 11.7787 344.664 12.632C344.664 13.4533 344.477 14.1307 344.104 14.664C343.731 15.1973 343.224 15.5973 342.584 15.864C341.944 16.12 341.219 16.248 340.408 16.248H338.408V21H336.552ZM338.408 14.76H340.184C341.037 14.76 341.688 14.584 342.136 14.232C342.595 13.8693 342.824 13.336 342.824 12.632C342.824 11.9173 342.595 11.4213 342.136 11.144C341.688 10.856 341.037 10.712 340.184 10.712H338.408V14.76ZM342.984 21L340.056 15.752L341.432 14.68L345.08 21H342.984Z" fill="black"/>
<g clip-path="url(#clip0_8001_3890)">
<path d="M294.85 9.58691C295.289 10.8301 295.733 12.8369 295.899 15.463H298.422C298.281 13.1675 297.865 11.1467 297.387 9.58691H294.85Z" fill="black"/>
<path d="M287.141 9.58691C287.581 10.8301 288.025 12.8369 288.191 15.463H290.714C290.568 13.1675 290.152 11.1467 289.679 9.58691H287.141Z" fill="black"/>
<path d="M302 1.98804H298.985V24.5519H302V1.98804Z" fill="black"/>
<path d="M294.292 1.98804H291.277V24.5519H294.292V1.98804Z" fill="black"/>
<path d="M282.704 9.58691H280.161C280.161 12.0919 279.882 14.0941 279.547 15.463H282.156C282.496 13.852 282.709 11.8405 282.709 9.58691H282.704Z" fill="black"/>
<path d="M273.611 21.8234C273.138 21.8234 272.666 21.7489 272.666 20.976V4.87488H262.5V1.70868H259.395V4.87488H253.388V7.60341H259.348C258.856 17.4838 254.641 22.1819 253.204 23.779L252.514 24.5473H256.612C258.682 21.991 262.037 16.7528 262.458 7.59875H269.655V21.8374C269.655 23.5881 270.766 24.5426 272.122 24.5426H277.784V21.8141H273.616L273.611 21.8234Z" fill="black"/>
<path d="M286.584 1.98804H283.569V12.2503C283.536 18.8155 281.603 22.2192 280.454 23.6626L279.75 24.5519H283.512C285.024 22.2518 286.555 18.4057 286.588 12.2596V1.98804H286.584Z" fill="black"/>
<path d="M56.2203 13.0977H39.0178V11.8731H53.9424V9.58694H39.0178V8.23199H53.9424V5.94581H39.0178V4.74451H54.1315V2.30933H36.0687V13.0977H32.1367V15.5329H35.6103V21.87C34.7927 21.9212 34.0129 21.9491 33.304 21.9584V24.5519C36.995 24.4914 41.9431 23.9606 45.2372 22.587V19.9889C43.3987 20.8037 40.9601 21.3066 38.5641 21.5999V15.5282H43.1057C44.9536 20.5709 50.3979 23.9606 56.2203 24.7335V22.1354C54.2213 21.8606 52.0946 21.111 50.2987 19.9749C51.4329 19.2346 53.4556 17.6328 54.4056 16.4036H50.8138C50.2136 17.0555 49.1644 18.0333 48.3847 18.4849C47.482 17.6235 46.7684 16.6318 46.3383 15.5236H56.2156V13.0884L56.2203 13.0977Z" fill="black"/>
<path d="M71.7546 5.15887H68.0542C65.6014 9.13991 61.2818 11.8871 57.6097 13.1396V16.1335C58.7629 15.7796 60.0058 15.2488 61.2629 14.5876V24.3982H78.5506V14.5876C79.803 15.2488 81.0506 15.775 82.2038 16.1335V13.1396C78.527 11.8871 74.2121 9.13991 71.7593 5.15887H71.7546ZM75.6677 21.8885H64.1363V16.3617H75.6677V21.8885ZM62.5578 13.852C65.4738 12.0919 68.2763 9.66606 69.902 7.01669C71.5278 9.66606 74.3303 12.0966 77.2462 13.852H62.5578Z" fill="black"/>
<path d="M67.5296 1.99268H64.1552C62.6004 3.78996 60.4831 4.83295 58.3706 5.4336V8.32974C62.4586 7.2076 66.3528 3.94827 67.5296 1.99268Z" fill="black"/>
<path d="M81.4383 8.32974V5.4336C79.321 4.83295 77.2038 3.78996 75.6537 1.99268H72.2793C73.4561 3.95293 77.355 7.2076 81.443 8.32974H81.4383Z" fill="black"/>
<path d="M95.2428 21.6697V5.04251H104.194V2.30933H83.2766V5.04251H92.2277V21.6697H82.5677V24.3983H104.907V21.6697H95.2428Z" fill="black"/>
<path d="M138.519 2.30933H118.901V5.04251H135.414V21.6697H118.859V24.3983H138.519V2.30933Z" fill="black"/>
<path d="M204.616 21.3857H182.82V24.1142H204.616V21.3857Z" fill="black"/>
<path d="M203.369 2.30933H184.073V5.03785H203.369V2.30933Z" fill="black"/>
<path d="M227.249 2.30933H207.887V5.03785H227.249V2.30933Z" fill="black"/>
<path d="M177.22 21.5859L177.702 9.04681H164.436V11.5705H174.772L174.389 21.5859H162.985V24.1142H181.038V21.5859H177.22Z" fill="black"/>
<path d="M160.608 22.2191C153.165 19.9655 145.57 19.1461 142.37 18.9365V21.7302C145.57 21.9351 153.165 22.7546 160.608 25.0128V22.2191Z" fill="black"/>
<path d="M160.608 5.10768C153.165 2.85409 145.57 2.0346 142.37 1.82507V4.61878C145.57 4.82831 153.165 5.64314 160.608 7.90139V5.10768Z" fill="black"/>
<path d="M142.37 9.2936V12.0873C145.546 12.2922 153.051 13.1024 160.447 15.3187V12.525C153.056 10.304 145.546 9.49847 142.37 9.28894V9.2936Z" fill="black"/>
<path d="M228.771 9.04218H206.365V11.7707H217.287C217.239 17.8424 215.037 20.9015 209.621 21.6372V24.5519C217.618 23.6347 220.439 18.4989 220.491 11.7707H228.771V9.04218Z" fill="black"/>
<path d="M241.479 5.44759C239.773 9.47519 235.071 12.8323 228.908 14.1267V16.9344C231.961 16.2965 234.735 15.2628 237.103 13.9172V24.3983H240.042V11.9104C242.008 10.304 243.516 8.42755 244.433 6.3602L244.839 5.44293H241.479V5.44759Z" fill="black"/>
<path d="M9.15424 1.41064H0V25.1013H9.15424V1.41064Z" fill="#004190"/>
<path d="M18.422 13.256C18.422 15.7331 16.3851 17.7399 13.8708 17.7399C11.3566 17.7399 9.3197 15.7331 9.3197 13.256C9.3197 10.7789 11.3566 8.77209 13.8708 8.77209C16.3851 8.77209 18.422 10.7789 18.422 13.256Z" fill="#E83820"/>
<path d="M28.8569 25.1013H15.5391L22.198 0.498047L28.8569 25.1013Z" fill="#009A53"/>
<path d="M27.8644 30.442C27.7179 29.7017 27.0658 29.264 25.8937 29.264C24.7217 29.264 24.0695 29.7017 23.923 30.442C23.8852 30.6282 23.8568 30.8797 23.8568 31.1451V37.119C23.8568 37.3797 23.8852 37.6405 23.923 37.8174C24.0695 38.5624 24.7217 38.9954 25.8937 38.9954C27.0658 38.9954 27.7179 38.5624 27.8644 37.8174C27.9023 37.6358 27.9306 37.3797 27.9306 37.119V31.1451C27.9306 30.8797 27.9023 30.6236 27.8644 30.442ZM26.82 37.7336C26.82 38.1899 26.5128 38.4134 25.8937 38.4134C25.2746 38.4134 24.9674 38.1899 24.9674 37.7336V30.5211C24.9674 30.0648 25.2746 29.8413 25.8937 29.8413C26.5128 29.8413 26.82 30.0695 26.82 30.5211V37.7336Z" fill="#231815"/>
<path d="M3.51135 29.385V33.6687H1.21925V29.385H0.108643V38.879H1.21925V34.2926H3.51135V38.879H4.62669V29.385H3.51135Z" fill="#231815"/>
<path d="M18.4408 30.0462V29.385H15.0712V38.879H18.4408V38.2224H16.1818V34.2647H18.2423V33.6408H16.1818V30.0462H18.4408Z" fill="#231815"/>
<path d="M20.3595 29.385H19.2489V38.879H20.3595V29.385Z" fill="#231815"/>
<path d="M21.3236 33.2124L23.1809 29.385H22.4815L20.3595 33.7572L22.5902 38.879H23.7953L21.3236 33.2124Z" fill="#231815"/>
<path d="M8.24688 29.385H6.89524L4.96704 38.879H5.68539L6.21943 36.2436H8.51153L9.04557 38.879H10.1704L8.24215 29.385H8.24688ZM6.34703 35.6196L7.36312 30.6003L8.38393 35.6196H6.34703Z" fill="#231815"/>
<path d="M10.9123 32.961C10.6382 32.5699 10.4587 31.9925 10.4492 31.471C10.4445 31.2056 10.4539 30.8331 10.4728 30.6143C10.5484 29.7342 11.3708 29.2686 12.3821 29.2686C13.5778 29.2686 14.282 29.846 14.282 30.6981V31.9552H13.1477V30.5072C13.1477 30.1114 12.9067 29.8646 12.4436 29.8646C11.8575 29.8646 11.6638 30.0695 11.6212 30.4653C11.5929 30.7167 11.5929 31.1311 11.5929 31.3686C11.5929 31.9087 11.7961 32.2346 11.9899 32.5186C12.3301 33.0122 13.3131 34.1064 13.8141 34.7536C14.1969 35.2518 14.3292 35.5591 14.3954 36.2622C14.4238 36.5602 14.4238 37.2679 14.3907 37.6172C14.3009 38.5298 13.3699 38.9954 12.3821 38.9954C11.2101 38.9954 10.4303 38.4227 10.4303 37.7289V36.0853H11.5693V37.7522C11.5693 38.269 11.9899 38.3901 12.4483 38.3901C13.0201 38.3901 13.2234 38.1899 13.2612 37.7941C13.299 37.4123 13.2848 36.8303 13.2753 36.5276C13.2612 36.0294 13.1997 35.8106 12.8784 35.4008C12.5286 34.9492 11.2526 33.4545 10.9076 32.961H10.9123Z" fill="#231815"/>
</g>
<defs>
<clipPath id="clip0_8001_3890">
<rect width="302" height="38.502" fill="white" transform="translate(0 0.498047)"/>
</clipPath>
</defs>
</svg>
