<svg id="ask_mail" xmlns="http://www.w3.org/2000/svg" width="32" height="32" viewBox="0 0 32 32">
  <g id="Group_1" data-name="Group 1" transform="translate(-2143.111 529.672)">
    <path id="Path_9" data-name="Path 9" d="M238.9,8.38H213.38a3.186,3.186,0,0,0-3.174,3.19l-.016,19.14a3.2,3.2,0,0,0,3.19,3.19H238.9a3.2,3.2,0,0,0,3.19-3.19V11.57A3.2,3.2,0,0,0,238.9,8.38Zm-.638,6.779-11.276,7.05a1.614,1.614,0,0,1-1.691,0l-11.277-7.05a1.354,1.354,0,1,1,1.436-2.3l10.686,6.683,10.687-6.683a1.354,1.354,0,1,1,1.435,2.3Z" transform="translate(1932.921 -535.052)" fill="#4a73b8"/>
    <path id="Path_10" data-name="Path 10" d="M238.9,8.38H213.38a3.186,3.186,0,0,0-3.174,3.19l-.016,19.14a3.2,3.2,0,0,0,3.19,3.19H238.9a3.2,3.2,0,0,0,3.19-3.19V11.57A3.2,3.2,0,0,0,238.9,8.38Zm-.638,6.779-11.276,7.05a1.614,1.614,0,0,1-1.691,0l-11.277-7.05a1.354,1.354,0,1,1,1.436-2.3l10.686,6.683,10.687-6.683a1.354,1.354,0,1,1,1.435,2.3Z" transform="translate(1932.921 -535.052)" fill="rgba(0,0,0,0.2)"/>
  </g>
  <rect id="Rectangle_10" data-name="Rectangle 10" width="32" height="32" fill="#e63e3e" opacity="0"/>
</svg>
