<svg id="ask_tel" xmlns="http://www.w3.org/2000/svg" width="32" height="32" viewBox="0 0 32 32">
  <g id="Group_2" data-name="Group 2" transform="translate(-1937 530)">
    <path id="Path_11" data-name="Path 11" d="M32.274,25.611l-4.263-.487a3.341,3.341,0,0,0-2.752.957l-3.088,3.088a25.251,25.251,0,0,1-11.06-11.06l3.1-3.1a3.341,3.341,0,0,0,.957-2.753l-.487-4.229a3.359,3.359,0,0,0-3.34-2.971h-2.9A3.331,3.331,0,0,0,5.085,8.526,28.517,28.517,0,0,0,31.754,35.195a3.331,3.331,0,0,0,3.474-3.357v-2.9A3.326,3.326,0,0,0,32.274,25.611Z" transform="translate(1932.921 -535.052)" fill="#4a73b8"/>
    <path id="Path_12" data-name="Path 12" d="M32.274,25.611l-4.263-.487a3.341,3.341,0,0,0-2.752.957l-3.088,3.088a25.251,25.251,0,0,1-11.06-11.06l3.1-3.1a3.341,3.341,0,0,0,.957-2.753l-.487-4.229a3.359,3.359,0,0,0-3.34-2.971h-2.9A3.331,3.331,0,0,0,5.085,8.526,28.517,28.517,0,0,0,31.754,35.195a3.331,3.331,0,0,0,3.474-3.357v-2.9A3.326,3.326,0,0,0,32.274,25.611Z" transform="translate(1932.921 -535.052)" fill="rgba(0,0,0,0.2)"/>
  </g>
  <rect id="Rectangle_9" data-name="Rectangle 9" width="32" height="32" fill="#e63e3e" opacity="0"/>
</svg>
