<svg id="icon_mypage_w" xmlns="http://www.w3.org/2000/svg" xmlns:xlink="http://www.w3.org/1999/xlink" width="32" height="32" viewBox="0 0 32 32">
  <defs>
    <clipPath id="clip-path">
      <rect id="Rectangle_19" data-name="Rectangle 19" width="32" height="32" transform="translate(2453 -956)" fill="#e32a2a" opacity="0.43"/>
    </clipPath>
  </defs>
  <g id="Mask_Group_10" data-name="Mask Group 10" transform="translate(-2453 956)" clip-path="url(#clip-path)">
    <g id="_レイヤー_2" transform="translate(2457 -963)">
      <path id="Path_17" data-name="Path 17" d="M17.163,22.144A7.738,7.738,0,0,0,20.518,15.8,7.924,7.924,0,0,0,12.5,8a7.921,7.921,0,0,0-8.018,7.8,7.746,7.746,0,0,0,3.355,6.342A12.124,12.124,0,0,0,0,33.425V38H2.691V33.425A9.688,9.688,0,0,1,12.5,23.884a9.688,9.688,0,0,1,9.809,9.541V38H25V33.425A12.122,12.122,0,0,0,17.163,22.144ZM12.5,10.617A5.262,5.262,0,0,1,17.827,15.8,5.262,5.262,0,0,1,12.5,20.98,5.262,5.262,0,0,1,7.173,15.8,5.262,5.262,0,0,1,12.5,10.617Z" fill="#393939"/>
      <path id="Path_18" data-name="Path 18" d="M17.163,22.144A7.738,7.738,0,0,0,20.518,15.8,7.924,7.924,0,0,0,12.5,8a7.921,7.921,0,0,0-8.018,7.8,7.746,7.746,0,0,0,3.355,6.342A12.124,12.124,0,0,0,0,33.425V38H2.691V33.425A9.688,9.688,0,0,1,12.5,23.884a9.688,9.688,0,0,1,9.809,9.541V38H25V33.425A12.122,12.122,0,0,0,17.163,22.144ZM12.5,10.617A5.262,5.262,0,0,1,17.827,15.8,5.262,5.262,0,0,1,12.5,20.98,5.262,5.262,0,0,1,7.173,15.8,5.262,5.262,0,0,1,12.5,10.617Z" fill="#393939"/>
    </g>
  </g>
</svg>
